<?xml version="1.0" encoding="UTF-8" standalone="no"?>
<!-- Created with Inkscape (http://www.inkscape.org/) -->

<svg
   xmlns:dc="http://purl.org/dc/elements/1.1/"
   xmlns:cc="http://creativecommons.org/ns#"
   xmlns:rdf="http://www.w3.org/1999/02/22-rdf-syntax-ns#"
   xmlns:svg="http://www.w3.org/2000/svg"
   xmlns="http://www.w3.org/2000/svg"
   xmlns:sodipodi="http://sodipodi.sourceforge.net/DTD/sodipodi-0.dtd"
   xmlns:inkscape="http://www.inkscape.org/namespaces/inkscape"
   width="210mm"
   height="297mm"
   viewBox="0 0 210 297"
   version="1.1"
   id="svg8"
   inkscape:version="0.92.4 (5da689c313, 2019-01-14)"
   sodipodi:docname="cloud-dialog.svg">
  <defs
     id="defs2" />
  <sodipodi:namedview
     id="base"
     pagecolor="#ffffff"
     bordercolor="#666666"
     borderopacity="1.0"
     inkscape:pageopacity="0.0"
     inkscape:pageshadow="2"
     inkscape:zoom="0.24748737"
     inkscape:cx="-624.33924"
     inkscape:cy="567.88411"
     inkscape:document-units="mm"
     inkscape:current-layer="layer1"
     showgrid="false"
     inkscape:snap-global="false"
     inkscape:window-width="1600"
     inkscape:window-height="849"
     inkscape:window-x="0"
     inkscape:window-y="22"
     inkscape:window-maximized="1" />
  <metadata
     id="metadata5">
    <rdf:RDF>
      <cc:Work
         rdf:about="">
        <dc:format>image/svg+xml</dc:format>
        <dc:type
           rdf:resource="http://purl.org/dc/dcmitype/StillImage" />
        <dc:title />
      </cc:Work>
    </rdf:RDF>
  </metadata>
  <g
     inkscape:label="Layer 1"
     inkscape:groupmode="layer"
     id="layer1">
    <path
       style="opacity:1;fill:#d7eef4;fill-opacity:1;stroke:#37abc8;stroke-width:5.265;stroke-miterlimit:4;stroke-dasharray:none"
       d="m 100.16391,30.526818 a 45.357142,45.357142 0 0 1 37.71708,20.207036 37.419642,37.419642 0 0 1 3.48247,-0.174149 37.419642,37.419642 0 0 1 37.02306,32.297253 37.419642,37.419642 0 0 1 21.56303,33.848582 37.419642,37.419642 0 0 1 -37.41942,37.41942 37.419642,37.419642 0 0 1 -5.63583,-0.45682 37.419642,37.419642 0 0 1 -31.40584,17.08784 37.419642,37.419642 0 0 1 -30.127359,-15.2957 37.419642,37.419642 0 0 1 -19.387447,5.4684 37.419642,37.419642 0 0 1 -32.403705,-18.76992 37.419642,37.419642 0 0 1 -9.929627,1.38286 A 37.419642,37.419642 0 0 1 -3.7796141,106.1222 37.419642,37.419642 0 0 1 17.645434,72.343387 37.419642,37.419642 0 0 1 54.050962,43.378231 37.419642,37.419642 0 0 1 66.509117,45.555357 45.357142,45.357142 0 0 1 100.16391,30.526818 Z"
       id="path815"
       inkscape:connector-curvature="0" />
    <path
       style="opacity:1;fill:#d7eef4;fill-opacity:1;stroke:#37abc8;stroke-width:3.4000001;stroke-miterlimit:4;stroke-dasharray:none"
       d="m 200.8689,172.46988 a 14.235729,14.235729 0 0 1 11.83782,6.34215 11.744476,11.744476 0 0 1 1.09301,-0.0546 11.744476,11.744476 0 0 1 11.62,10.13677 11.744476,11.744476 0 0 1 6.76774,10.62367 11.744476,11.744476 0 0 1 -11.7444,11.7444 11.744476,11.744476 0 0 1 -1.76886,-0.14337 11.744476,11.744476 0 0 1 -9.85699,5.36316 11.744476,11.744476 0 0 1 -9.45573,-4.80069 11.744476,11.744476 0 0 1 -6.08491,1.71631 11.744476,11.744476 0 0 1 -10.17018,-5.8911 11.744476,11.744476 0 0 1 -3.1165,0.43402 11.744476,11.744476 0 0 1 -11.74457,-11.7444 11.744476,11.744476 0 0 1 6.72444,-10.60178 11.744476,11.744476 0 0 1 11.42618,-9.09096 11.744476,11.744476 0 0 1 3.9101,0.68331 14.235729,14.235729 0 0 1 10.56285,-4.71683 z"
       id="path815-5"
       inkscape:connector-curvature="0" />
    <g
       id="g888"
       transform="translate(89.958333,-55.184524)">
      <path
         style="opacity:1;fill:#f9f9f9;fill-opacity:1;stroke:none;stroke-width:5.26499987;stroke-miterlimit:4;stroke-dasharray:none"
         d="m -235.47895,45.645866 a 45.357142,45.357142 0 0 1 37.71708,20.207036 37.419642,37.419642 0 0 1 3.48247,-0.174149 37.419642,37.419642 0 0 1 37.02306,32.297253 37.419642,37.419642 0 0 1 21.56303,33.848584 37.419642,37.419642 0 0 1 -37.41942,37.41942 37.419642,37.419642 0 0 1 -5.63583,-0.45682 37.419642,37.419642 0 0 1 -31.40584,17.08784 37.419642,37.419642 0 0 1 -30.12736,-15.2957 37.419642,37.419642 0 0 1 -19.38744,5.4684 37.419642,37.419642 0 0 1 -32.40371,-18.76992 37.419642,37.419642 0 0 1 -9.92963,1.38286 37.419642,37.419642 0 0 1 -37.41993,-37.41942 37.419642,37.419642 0 0 1 21.42505,-33.778815 37.419642,37.419642 0 0 1 36.40552,-28.965156 37.419642,37.419642 0 0 1 12.45816,2.177126 45.357142,45.357142 0 0 1 33.65479,-15.028539 z"
         id="path822"
         inkscape:connector-curvature="0" />
      <path
         transform="scale(0.26458333)"
         id="path872"
         d="m -1177.9355,332.08984 a 139.40105,135.36044 0 0 0 -93.8477,127.76954 139.40105,135.36044 0 0 0 84.6309,124.44726 159.6041,148.46315 0 0 1 -55.336,-112.29492 159.6041,148.46315 0 0 1 67.4707,-120.91797 109.92303,95.840663 3.2038767 0 1 -2.0039,-9.44922 109.92303,95.840663 3.2038767 0 1 -0.914,-9.55469 z"
         style="opacity:1;fill:#ffffff;fill-opacity:1;stroke:none;stroke-width:2.69527555;stroke-miterlimit:4;stroke-dasharray:none;stroke-opacity:1"
         inkscape:connector-curvature="0" />
      <path
         style="opacity:1;fill:#ffffff;fill-opacity:1;stroke:none;stroke-width:0.53285134;stroke-miterlimit:4;stroke-dasharray:none;stroke-opacity:1"
         d="m -274.94015,63.044988 a 29.083803,25.357842 3.2038767 0 0 -35.7106,17.301587 29.083803,25.357842 3.2038767 0 0 9.97708,26.691425 33.247566,27.855347 6.1319207 0 1 -4.77198,-23.019145 33.247566,27.855347 6.1319207 0 1 34.51357,-19.648429 29.083803,25.357842 3.2038767 0 0 -4.00807,-1.325438 z"
         id="path842"
         inkscape:connector-curvature="0" />
      <path
         inkscape:connector-curvature="0"
         id="path876"
         d="m -244.37266,66.437951 a 42.140473,42.140473 0 0 0 -42.14008,42.140629 42.140473,42.140473 0 0 0 5.10162,20.01652 50.006693,50.006693 0 0 1 -1.16893,-10.46454 50.006693,50.006693 0 0 1 49.90497,-50.003289 42.140473,42.140473 0 0 0 -11.69758,-1.68932 z"
         style="opacity:1;fill:#ffffff;fill-opacity:1;stroke:none;stroke-width:0.82566279;stroke-miterlimit:4;stroke-dasharray:none;stroke-opacity:1" />
      <path
         style="opacity:1;fill:#ffffff;fill-opacity:1;stroke:none;stroke-width:0.64439875;stroke-miterlimit:4;stroke-dasharray:none;stroke-opacity:1"
         d="m -177.0164,96.813324 a 31.915531,33.89227 0 0 0 -39.08813,23.965646 31.915531,33.89227 0 0 0 -0.19151,16.61207 37.873096,40.218825 0 0 1 1.19611,-8.37285 37.873096,40.218825 0 0 1 46.3098,-28.45753 31.915531,33.89227 0 0 0 -8.22627,-3.747336 z"
         id="path881"
         inkscape:connector-curvature="0" />
    </g>
  </g>
</svg>
