<?xml version="1.0" encoding="UTF-8" standalone="no"?>
<!-- Created with Inkscape (http://www.inkscape.org/) -->

<svg
   xmlns:dc="http://purl.org/dc/elements/1.1/"
   xmlns:cc="http://creativecommons.org/ns#"
   xmlns:rdf="http://www.w3.org/1999/02/22-rdf-syntax-ns#"
   xmlns:svg="http://www.w3.org/2000/svg"
   xmlns="http://www.w3.org/2000/svg"
   xmlns:xlink="http://www.w3.org/1999/xlink"
   xmlns:sodipodi="http://sodipodi.sourceforge.net/DTD/sodipodi-0.dtd"
   xmlns:inkscape="http://www.inkscape.org/namespaces/inkscape"
   width="210mm"
   height="297mm"
   viewBox="0 0 210 297"
   version="1.1"
   id="svg17276"
   inkscape:version="0.92.4 (5da689c313, 2019-01-14)"
   sodipodi:docname="stone.svg">
  <defs
     id="defs17270">
    <inkscape:path-effect
       effect="bspline"
       id="path-effect17991"
       is_visible="true"
       weight="33.333333"
       steps="2"
       helper_size="0"
       apply_no_weight="true"
       apply_with_weight="true"
       only_selected="false" />
    <inkscape:path-effect
       effect="bspline"
       id="path-effect17987"
       is_visible="true"
       weight="33.333333"
       steps="2"
       helper_size="0"
       apply_no_weight="true"
       apply_with_weight="true"
       only_selected="false" />
    <inkscape:path-effect
       effect="bspline"
       id="path-effect17983"
       is_visible="true"
       weight="33.333333"
       steps="2"
       helper_size="0"
       apply_no_weight="true"
       apply_with_weight="true"
       only_selected="false" />
    <inkscape:path-effect
       effect="bspline"
       id="path-effect17979"
       is_visible="true"
       weight="33.333333"
       steps="2"
       helper_size="0"
       apply_no_weight="true"
       apply_with_weight="true"
       only_selected="false" />
    <inkscape:path-effect
       effect="bspline"
       id="path-effect17956"
       is_visible="true"
       weight="33.333333"
       steps="2"
       helper_size="0"
       apply_no_weight="true"
       apply_with_weight="true"
       only_selected="false" />
    <inkscape:path-effect
       only_selected="false"
       apply_with_weight="true"
       apply_no_weight="true"
       helper_size="0"
       steps="2"
       weight="33.333333"
       is_visible="true"
       id="path-effect17952"
       effect="bspline" />
    <inkscape:path-effect
       effect="bspline"
       id="path-effect17948"
       is_visible="true"
       weight="33.333333"
       steps="2"
       helper_size="0"
       apply_no_weight="true"
       apply_with_weight="true"
       only_selected="false" />
    <inkscape:path-effect
       effect="bspline"
       id="path-effect17944"
       is_visible="true"
       weight="33.333333"
       steps="2"
       helper_size="0"
       apply_no_weight="true"
       apply_with_weight="true"
       only_selected="false" />
    <inkscape:path-effect
       effect="bspline"
       id="path-effect17940"
       is_visible="true"
       weight="33.333333"
       steps="2"
       helper_size="0"
       apply_no_weight="true"
       apply_with_weight="true"
       only_selected="false" />
    <inkscape:path-effect
       effect="bspline"
       id="path-effect17936"
       is_visible="true"
       weight="33.333333"
       steps="2"
       helper_size="0"
       apply_no_weight="true"
       apply_with_weight="true"
       only_selected="false" />
    <inkscape:path-effect
       effect="bspline"
       id="path-effect17932"
       is_visible="true"
       weight="33.333333"
       steps="2"
       helper_size="0"
       apply_no_weight="true"
       apply_with_weight="true"
       only_selected="false" />
    <inkscape:path-effect
       effect="bspline"
       id="path-effect17928"
       is_visible="true"
       weight="33.333333"
       steps="2"
       helper_size="0"
       apply_no_weight="true"
       apply_with_weight="true"
       only_selected="false" />
    <inkscape:path-effect
       effect="bspline"
       id="path-effect17924"
       is_visible="true"
       weight="33.333333"
       steps="2"
       helper_size="0"
       apply_no_weight="true"
       apply_with_weight="true"
       only_selected="false" />
    <inkscape:path-effect
       effect="bspline"
       id="path-effect17920"
       is_visible="true"
       weight="33.333333"
       steps="2"
       helper_size="0"
       apply_no_weight="true"
       apply_with_weight="true"
       only_selected="false" />
    <inkscape:path-effect
       effect="bspline"
       id="path-effect17916"
       is_visible="true"
       weight="33.333333"
       steps="2"
       helper_size="0"
       apply_no_weight="true"
       apply_with_weight="true"
       only_selected="false" />
    <inkscape:path-effect
       effect="bspline"
       id="path-effect17912"
       is_visible="true"
       weight="33.333333"
       steps="2"
       helper_size="0"
       apply_no_weight="true"
       apply_with_weight="true"
       only_selected="false" />
    <inkscape:path-effect
       only_selected="false"
       apply_with_weight="true"
       apply_no_weight="true"
       helper_size="0"
       steps="2"
       weight="33.333333"
       is_visible="true"
       id="path-effect17907"
       effect="bspline" />
    <inkscape:path-effect
       effect="bspline"
       id="path-effect17903"
       is_visible="true"
       weight="33.333333"
       steps="2"
       helper_size="0"
       apply_no_weight="true"
       apply_with_weight="true"
       only_selected="false" />
    <inkscape:path-effect
       effect="bspline"
       id="path-effect17899"
       is_visible="true"
       weight="33.333333"
       steps="2"
       helper_size="0"
       apply_no_weight="true"
       apply_with_weight="true"
       only_selected="false" />
    <linearGradient
       xlink:href="#ym"
       y2="94.809998"
       x2="68.839996"
       y1="94.809998"
       x1="64.139999"
       id="add"
       gradientTransform="matrix(10.515182,0,0,10.515182,-532.94567,-855.731)" />
    <linearGradient
       gradientUnits="userSpaceOnUse"
       gradientTransform="rotate(9.25,316.68281,84.930664)"
       y2="96.010002"
       x2="139.28"
       y1="96.010002"
       x1="137.64"
       id="ym">
      <stop
         id="stop2021"
         stop-color="#893f29"
         offset="0.01" />
      <stop
         id="stop2023"
         stop-color="#a46951"
         offset="1" />
    </linearGradient>
    <linearGradient
       xlink:href="#yh"
       y2="93.160004"
       x2="67.720001"
       y1="96.150002"
       x1="67.720001"
       id="adc"
       gradientTransform="matrix(10.515182,0,0,10.515182,-532.94567,-855.731)" />
    <linearGradient
       gradientUnits="userSpaceOnUse"
       gradientTransform="matrix(1,0.05,-0.05,1.05,13.08,-21.68)"
       y2="79.129997"
       x2="131.39"
       y1="79.129997"
       x1="130.50999"
       id="yh">
      <stop
         id="stop2012"
         stop-color="#893f29"
         offset="0.01" />
      <stop
         id="stop2014"
         stop-color="#a46951"
         offset="0.8" />
    </linearGradient>
    <linearGradient
       xlink:href="#yg"
       y2="93.18"
       x2="67.209999"
       y1="96.169998"
       x1="67.209999"
       id="adb"
       gradientTransform="matrix(10.515182,0,0,10.515182,-532.94567,-855.731)" />
    <linearGradient
       gradientUnits="userSpaceOnUse"
       gradientTransform="matrix(1,0.05,-0.05,1.05,13.08,-21.68)"
       y2="79.029999"
       x2="131.03999"
       y1="79.029999"
       x1="130.50999"
       id="yg">
      <stop
         id="stop2007"
         stop-color="#9e513d"
         offset="0.01" />
      <stop
         id="stop2009"
         stop-color="#b1846a"
         offset="1" />
    </linearGradient>
    <linearGradient
       xlink:href="#ym"
       y2="95.550003"
       x2="64.419998"
       y1="93.629997"
       x1="65.709999"
       id="ada"
       gradientTransform="matrix(10.515182,0,0,10.515182,-532.94567,-855.731)" />
    <linearGradient
       xlink:href="#yh"
       y2="96.059998"
       x2="66.199997"
       y1="94.860001"
       x1="66.169998"
       id="acz"
       gradientTransform="matrix(10.515182,0,0,10.515182,-532.94567,-855.731)" />
  </defs>
  <sodipodi:namedview
     id="base"
     pagecolor="#ffffff"
     bordercolor="#666666"
     borderopacity="1.0"
     inkscape:pageopacity="0.0"
     inkscape:pageshadow="2"
     inkscape:zoom="0.7"
     inkscape:cx="423.36663"
     inkscape:cy="600.80818"
     inkscape:document-units="mm"
     inkscape:current-layer="layer1"
     showgrid="false"
     inkscape:snap-global="false"
     inkscape:window-width="1600"
     inkscape:window-height="849"
     inkscape:window-x="0"
     inkscape:window-y="22"
     inkscape:window-maximized="1" />
  <metadata
     id="metadata17273">
    <rdf:RDF>
      <cc:Work
         rdf:about="">
        <dc:format>image/svg+xml</dc:format>
        <dc:type
           rdf:resource="http://purl.org/dc/dcmitype/StillImage" />
        <dc:title></dc:title>
      </cc:Work>
    </rdf:RDF>
  </metadata>
  <g
     inkscape:label="Layer 1"
     inkscape:groupmode="layer"
     id="layer1">
    <g
       id="g18009">
      <path
         transform="translate(40.065476,53.861607)"
         inkscape:original-d="m 176.30337,154.77802 c -9.35826,-0.80643 -18.71678,-1.6126 -28.07557,-2.4185 -0.61859,-0.38822 -1.17442,-0.77616 -1.76203,-1.16384 -1.51558,-1.32994 -3.0311,-2.65933 -4.54705,-3.98859 -0.31094,-2.54502 -0.35023,-5.46816 -0.52574,-8.20184 0.84139,-0.42084 1.68268,-0.84149 2.52362,-1.26184 3.58896,-4.01912 7.18037,-8.04101 10.77015,-12.06112 1.10262,-0.31522 2.20513,-0.63023 3.3073,-0.94494 2.88151,-0.34665 5.7644,-0.69322 8.6462,-1.03944 0.77189,0.17296 1.54367,0.34622 2.31511,0.51972 3.8263,1.36955 7.65428,2.74006 11.48102,4.11049 0.11051,0.48794 0.22075,0.97618 0.33073,1.46466 3.21435,3.67072 6.42586,7.33877 9.63839,11.00856 0.268,0.69269 0.53574,1.38565 0.8032,2.07887 -2.01602,3.00841 -4.03148,6.01585 -6.04762,9.02418 -0.4565,0.20449 -0.91317,0.40921 -1.37016,0.61421 -2.28494,0.70894 -4.56695,1.41715 -6.85082,2.12612 -0.21201,0.0442 -0.42422,0.0886 -0.63673,0.1333 z"
         inkscape:path-effect="#path-effect17899"
         inkscape:connector-curvature="0"
         id="path17897"
         d="m 171.7305,154.3527 c -4.78541,-0.38083 -14.14393,-1.18699 -19.12793,-1.79129 -4.98399,-0.60429 -5.54939,-0.97774 -6.60101,-1.83656 -1.05162,-0.85883 -2.56714,-2.18822 -3.40686,-4.13022 -0.83972,-1.942 -1.02649,-4.85568 -0.69338,-6.4329 0.3331,-1.57721 1.17439,-1.99787 3.38931,-4.21766 2.21491,-2.21979 5.80632,-6.24169 8.15255,-8.40926 2.34624,-2.16757 3.44875,-2.48257 5.44058,-2.81322 1.99183,-0.33066 4.87472,-0.67724 6.70151,-0.76382 1.8268,-0.0866 2.59858,0.0867 4.89743,0.8582 2.29885,0.77153 6.12683,2.14204 8.09535,3.0711 1.96853,0.92906 2.07877,1.4173 3.74095,3.49699 1.66218,2.07969 4.87369,5.74774 6.61393,7.92892 1.74025,2.18117 2.00798,2.87414 1.13384,4.72487 -0.87415,1.85073 -2.88961,4.85817 -4.12587,6.46466 -1.23626,1.60649 -1.69294,1.81121 -3.0639,2.2682 -1.37097,0.45699 -3.65298,1.16521 -4.90093,1.5418 -1.24794,0.37659 -1.46015,0.42101 -6.24557,0.0402 z"
         style="fill:#a86c55;fill-opacity:1;stroke:none;stroke-width:0.26458332px;stroke-linecap:butt;stroke-linejoin:miter;stroke-opacity:1" />
      <path
         sodipodi:nodetypes="cscccsccscccccccscscccccccscccscsccc"
         inkscape:connector-curvature="0"
         id="path17901"
         d="m 200.70964,178.31979 c -0.62484,0.0856 -1.22641,0.17487 -1.76062,0.26355 -1.99183,0.33065 -3.09426,0.64569 -5.4405,2.81326 -2.34623,2.16757 -5.93755,6.18952 -8.15247,8.40931 -2.21491,2.21979 -3.05635,2.6401 -3.38946,4.21731 -0.3331,1.57722 -0.14622,4.4912 0.6935,6.4332 0.83972,1.942 2.35541,3.27116 3.40703,4.12998 1.05162,0.85883 1.61715,1.23229 6.60115,1.83658 4.98399,0.6043 14.34209,1.41029 19.12751,1.79111 4.78542,0.38082 4.99767,0.3368 6.24562,-0.0398 1.24794,-0.37659 3.53002,-1.08503 4.90099,-1.54203 1.37096,-0.45699 1.82763,-0.66158 3.06389,-2.26808 1.23627,-1.60649 3.2517,-4.61398 4.12585,-6.46472 0.87415,-1.85073 0.60647,-2.5436 -1.13378,-4.72477 -0.27015,-0.33861 -0.58388,-0.72107 -0.91364,-1.11983 -0.49911,-0.1639 -0.96782,-0.28866 -1.37769,-0.38447 -1.21237,-0.28342 -1.93691,-0.3461 -1.82677,-0.1571 0.11014,0.189 1.05542,0.62996 0.61444,0.62994 -0.44099,-3e-5 -2.26873,-0.44123 -3.70159,-0.61444 -1.43285,-0.17321 -2.47226,-0.0785 -3.36982,0.4253 -0.89755,0.50382 -1.65416,1.41763 -2.39417,2.07894 -0.74,0.66132 -1.46426,1.07092 -2.20451,1.08676 -0.74026,0.0158 -2.06445,-1.36476 -2.33219,-1.38053 -0.26773,-0.0158 -0.0472,0.33072 -0.23616,0.36225 -0.18893,0.0315 -1.02121,-0.68624 -1.99757,-1.0012 -0.97637,-0.31497 -1.22876,-0.46115 -2.39205,-0.18431 -1.1967,-0.15748 -2.56948,0.67597 -2.94789,0.5026 -0.37841,-0.17337 -0.095,-0.55156 -0.42581,-1.24437 -0.33085,-0.69281 -1.27572,-1.70041 -1.8743,-2.59829 -0.59859,-0.89788 -0.8504,-1.68515 -0.47233,-1.95285 0.37808,-0.2677 1.38536,-0.016 2.09445,-0.0791 0.70909,-0.0631 1.11887,-0.44088 0.81959,-0.64544 -0.29929,-0.20456 -1.30732,-0.23636 -2.39417,-1.21284 -1.08686,-0.97649 -2.25184,-2.89711 -2.26757,-4.45658 -0.0125,-1.24214 0.70044,-2.24657 1.31104,-2.90938 z"
         style="fill:#9b614b;fill-opacity:1;stroke:none;stroke-width:0.26458332px;stroke-linecap:butt;stroke-linejoin:miter;stroke-opacity:1" />
      <path
         transform="matrix(0.99158815,0,0,1.0013236,1.6590724,-0.23733082)"
         inkscape:original-d="m 198.7483,179.30118 c 0.0448,0.34496 0.0894,0.69018 0.13363,1.03567 -0.13345,0.38976 -0.267,0.77927 -0.4009,1.1693 -0.10004,0.47899 -0.20019,0.95745 -0.30068,1.43658 0.1117,0.43432 0.22299,0.86836 0.33409,1.30294 -0.0777,0.46765 -0.15564,0.93517 -0.23386,1.40316 0.0894,0.43433 0.17844,0.86836 0.26727,1.30294 -0.0332,0.42311 -0.0666,0.84609 -0.10023,1.26953 0.26772,0.46777 0.53481,0.93518 0.80181,1.40316 0.4458,0.70145 0.89116,1.40291 1.33635,2.10475 0.53485,0.18907 1.06934,0.37837 1.60361,0.56795 0.13387,0.16673 0.26754,0.33382 0.40091,0.50113 0.24531,0.2782 0.49026,0.55655 0.73499,0.83522 0.0337,0.15565 0.0671,0.31155 0.10023,0.46772 1.12646,-2.7e-4 2.24978,-2.7e-4 3.37427,0 0.65715,0.27808 1.31435,0.55655 1.97112,0.83522 0.49016,0.0777 0.98025,0.15564 1.46998,0.23386 0.73493,0.0888 1.47025,0.17791 2.20497,0.26727 -0.0547,0.15095 -0.10972,0.30226 -0.16498,0.45379 0.35536,0.0944 0.70897,0.18872 1.06305,0.28348 0.26787,-2.6e-4 0.53574,-2.6e-4 0.8032,0 0.2756,-0.0239 0.55148,-0.0475 0.82683,-0.0709 0.51565,0.0671 1.03211,0.13455 1.54776,0.20222 0.38987,-0.13384 0.7798,-0.26753 1.16931,-0.4009 0.10041,-0.3007 0.20071,-0.60162 0.30068,-0.90204 0.26725,0.0887 0.5348,0.17792 0.8018,0.26727 0.23399,-0.33415 0.46799,-0.66844 0.70159,-1.00226 0.42306,-0.15603 0.84662,-0.31208 1.26953,-0.46772 0.4565,-0.14493 0.91343,-0.28981 1.36975,-0.43431 0.67911,0.0554 1.35889,0.1111 2.03793,0.16704 0.77953,-0.0114 1.55934,-0.0225 2.33861,-0.0334 0.30084,-0.17838 0.60162,-0.35662 0.90204,-0.53454 0.31175,0.0554 0.62389,0.1111 0.93544,0.16705 0.62347,0.27795 1.24752,0.55655 1.87089,0.83521 0.27861,0.75686 0.55707,1.51427 0.83521,2.27179 -0.0666,0.24479 -0.13337,0.48973 -0.20045,0.735 -0.40115,-0.50204 -0.80154,-1.00253 -1.20271,-1.50339 -0.36721,-0.3232 -0.73473,-0.64617 -1.10249,-0.96886 -1.90412,0.13338 -3.80832,0.26701 -5.71288,0.40091 -1.58132,0.77939 -3.16243,1.55881 -4.74404,2.33861 -0.30047,-0.13393 -0.60109,-0.26754 -0.90203,-0.40091 -0.44537,0.16685 -0.89064,0.33382 -1.33635,0.50113 -0.47894,-0.20086 -0.95745,-0.40117 -1.43657,-0.60135 -1.2919,0.0666 -2.58335,0.13337 -3.87541,0.20045 -1.92672,-0.61289 -3.85287,-1.22525 -5.77971,-1.83748 -1.12459,-0.44575 -2.24925,-0.89116 -3.37427,-1.33635 -0.13339,-0.39008 -0.26701,-0.7798 -0.40091,-1.1693 -0.63424,-0.18951 -1.26926,-0.3789 -1.90429,-0.56795 -0.65695,-0.9471 -1.31381,-1.89342 -1.97112,-2.83974 0.0559,-1.47016 0.11163,-2.94023 0.16705,-4.40995 0.0225,-1.70379 0.0448,-3.40795 0.0668,-5.11152 0.27862,-0.0893 0.55707,-0.17845 0.83521,-0.26728 0.18937,-0.0336 0.3789,-0.0671 0.56795,-0.10022 z"
         inkscape:path-effect="#path-effect17940"
         inkscape:connector-curvature="0"
         id="path17938"
         d="m 198.77056,179.47368 c 0.0223,0.1725 0.0668,0.51772 0.0223,0.8853 -0.0445,0.36757 -0.17807,0.75709 -0.29506,1.1916 -0.11699,0.43452 -0.21714,0.91298 -0.21159,1.36976 0.006,0.45679 0.11684,0.89083 0.13358,1.34189 0.0167,0.45105 -0.0612,0.91857 -0.0556,1.36978 0.006,0.45121 0.0946,0.88524 0.12244,1.31405 0.0279,0.4288 -0.006,0.85178 0.11146,1.29749 0.11698,0.4457 0.38407,0.91311 0.74048,1.49783 0.3564,0.58473 0.80177,1.28618 1.29188,1.7317 0.49012,0.44552 1.02461,0.63482 1.35859,0.81293 0.33397,0.17812 0.46765,0.3452 0.65699,0.56796 0.18935,0.22277 0.4343,0.50112 0.57349,0.71819 0.13919,0.21707 0.1726,0.37297 0.75255,0.45102 0.57996,0.078 1.70328,0.078 2.59403,0.21725 0.89076,0.1392 1.54795,0.41767 2.12147,0.59583 0.57351,0.17816 1.06359,0.25613 1.67593,0.33963 0.61234,0.0835 1.34765,0.17263 1.6876,0.29261 0.33995,0.11997 0.28494,0.27129 0.43502,0.39445 0.15008,0.12316 0.5037,0.21746 0.81471,0.26468 0.31102,0.0472 0.57889,0.0472 0.85043,0.0354 0.27154,-0.0118 0.54742,-0.0355 0.94289,-0.0136 0.39548,0.0219 0.91193,0.0893 1.36474,0.0562 0.4528,-0.0332 0.84273,-0.16684 1.08759,-0.38398 0.24485,-0.21714 0.34516,-0.51806 0.52879,-0.62372 0.18362,-0.10566 0.45119,-0.0165 0.70171,-0.13905 0.25051,-0.12258 0.48452,-0.45687 0.8129,-0.7017 0.32838,-0.24483 0.75194,-0.40088 1.19165,-0.55116 0.4397,-0.15027 0.89663,-0.29515 1.46431,-0.33965 0.56768,-0.0445 1.24746,0.0112 1.97676,0.0335 0.72929,0.0223 1.5091,0.0111 2.04918,-0.0836 0.54008,-0.0947 0.84086,-0.27295 1.14689,-0.33412 0.30604,-0.0612 0.61818,-0.005 1.08564,0.16153 0.46747,0.16696 1.09152,0.44555 1.54242,0.96321 0.45091,0.51766 0.72936,1.27508 0.83522,1.77615 0.10585,0.50108 0.0391,0.74601 -0.19512,0.61777 -0.23417,-0.12825 -0.63456,-0.62873 -1.01873,-1.04074 -0.38417,-0.41201 -0.75169,-0.73498 -1.88749,-0.82965 -1.13581,-0.0947 -3.04001,0.0389 -4.78293,0.49553 -1.74293,0.45658 -3.32404,1.236 -4.26518,1.55904 -0.94113,0.32304 -1.24175,0.18943 -1.61481,0.20608 -0.37306,0.0166 -0.81832,0.18363 -1.28074,0.16694 -0.46242,-0.0167 -0.94094,-0.217 -1.82637,-0.28384 -0.88544,-0.0668 -2.17689,-4e-5 -3.78633,-0.27291 -1.60945,-0.27287 -3.5356,-0.88523 -5.06133,-1.41422 -1.52573,-0.52899 -2.65038,-0.97441 -3.27969,-1.39214 -0.6293,-0.41774 -0.76292,-0.80746 -1.14688,-1.09686 -0.38396,-0.2894 -1.01897,-0.47879 -1.66507,-1.04692 -0.64609,-0.56813 -1.30295,-1.51445 -1.60361,-2.7228 -0.30066,-1.20835 -0.24497,-2.67842 -0.206,-4.26517 0.039,-1.58675 0.0612,-3.29091 0.2117,-4.18728 0.15046,-0.89638 0.42892,-0.98549 0.66267,-1.04669 0.23374,-0.0612 0.42328,-0.0947 0.51779,-0.11133 0.0945,-0.0167 0.0945,-0.0167 0.11678,0.15584 z"
         style="fill:#c49075;fill-opacity:1;stroke:none;stroke-width:0.26458332px;stroke-linecap:butt;stroke-linejoin:miter;stroke-opacity:1" />
      <path
         inkscape:original-d="m 182.67872,193.83396 c 0.55708,-0.71298 1.11389,-1.4257 1.67043,-2.13816 1.93718,-1.87038 3.87568,-3.74203 5.81312,-5.61266 1.53685,-1.80408 3.07386,-3.6084 4.6104,-5.4122 0.89102,-0.44565 1.78206,-0.89117 2.67269,-1.33635 0.42329,-0.0671 0.84662,-0.1339 1.26953,-0.20045 -0.42261,0.60066 -0.84609,1.20244 -1.26953,1.80406 0.24539,1.26991 0.49026,2.5388 0.73499,3.8086 -0.20022,0.69029 -0.40064,1.38062 -0.60135,2.07134 0.24537,0.64593 0.49026,1.29153 0.73499,1.9377 0.40126,0.91311 0.80207,1.82608 1.20271,2.73951 0.95811,0.53435 1.9157,1.06882 2.87315,1.60362 0.24524,0.1779 0.49026,0.35609 0.73499,0.53454 -0.51191,0.45623 -1.02427,0.9129 -1.5368,1.36975 -1.6488,2.74074 -3.29606,5.47877 -4.94449,8.21854 -0.12224,0.99097 -0.24473,1.98198 -0.36749,2.97338 -0.18911,0.12227 -0.37837,0.24473 -0.56795,0.36749 -1.34941,-0.24566 -2.6947,-0.49026 -4.04245,-0.73499 -1.30288,-0.20075 -2.60561,-0.40117 -3.90882,-0.60136 -0.85737,-0.72424 -1.71471,-1.44797 -2.57247,-2.17156 -0.87952,-1.44802 -1.75926,-2.89568 -2.63928,-4.34313 2.6e-4,-1.26973 2.6e-4,-2.53933 0,-3.80859 0.0448,-0.35655 0.0894,-0.71299 0.13363,-1.06908 z"
         inkscape:path-effect="#path-effect17912"
         inkscape:connector-curvature="0"
         id="path17910"
         d="m 182.93499,193.65548 c 0.30077,-0.53453 0.85758,-1.24725 2.10446,-2.53866 1.24688,-1.2914 3.18538,-3.16305 4.92251,-5.00041 1.73714,-1.83737 3.27415,-3.64169 4.48797,-4.76635 1.21382,-1.12466 2.10485,-1.57018 2.76181,-1.82625 0.65695,-0.25606 1.08027,-0.3229 1.08038,-0.056 1.1e-4,0.26692 -0.42337,0.8687 -0.51252,1.80452 -0.0892,0.93581 0.15571,2.2047 0.17804,3.18469 0.0223,0.97999 -0.1781,1.67032 -0.15584,2.33873 0.0223,0.66841 0.26714,1.31401 0.59013,2.09366 0.323,0.77965 0.72381,1.69262 1.40326,2.4166 0.67945,0.72397 1.63704,1.25844 2.23836,1.61479 0.60132,0.35634 0.84634,0.53453 0.71287,0.85173 -0.13347,0.3172 -0.64583,0.77387 -1.72654,2.37263 -1.08071,1.59877 -2.72798,4.33679 -3.61339,6.20217 -0.88541,1.86538 -1.0079,2.85639 -1.1637,3.41327 -0.1558,0.55689 -0.34506,0.67935 -1.1146,0.61801 -0.76955,-0.0613 -2.11484,-0.30592 -3.44015,-0.52867 -1.32531,-0.22274 -2.62804,-0.42316 -3.70842,-0.88538 -1.08039,-0.46223 -1.93773,-1.18595 -2.80641,-2.27181 -0.86867,-1.08585 -1.74841,-2.53351 -2.18826,-3.8922 -0.43986,-1.35868 -0.43986,-2.62828 -0.41757,-3.4412 0.0223,-0.81292 0.0668,-1.16936 0.36761,-1.7039 z"
         style="fill:#824734;stroke:none;stroke-width:0.26458332px;stroke-linecap:butt;stroke-linejoin:miter;stroke-opacity:1;fill-opacity:1" />
      <path
         inkscape:original-d="m 229.28384,194.56895 c -0.36723,-0.42344 -0.73472,-0.84662 -1.10248,-1.26953 -0.67902,0.1445 -1.35836,0.28928 -2.03793,0.43431 -0.46767,0.0889 -0.93518,0.17792 -1.40317,0.26727 -0.74635,0.0332 -1.49199,0.0666 -2.23838,0.10023 -0.53447,-0.056 -1.06881,-0.11163 -1.60362,-0.16704 -0.48994,0.31168 -0.97972,0.62336 -1.46998,0.93544 -0.32289,0.53461 -0.64564,1.06881 -0.96885,1.60362 -0.52345,0.0332 -1.04654,0.0666 -1.57021,0.10022 -0.13344,0.412 -0.26701,0.82382 -0.40091,1.23612 -0.47896,3.20944 -0.95745,6.41421 -1.43657,9.62171 0.11164,0.21134 0.22299,0.42291 0.33409,0.63476 1.0587,-0.16738 2.11615,-0.33435 3.17383,-0.50113 1.51436,-0.46785 3.02931,-0.93571 4.54358,-1.40316 0.69056,-0.51243 1.38115,-1.0248 2.07133,-1.5368 0.54571,-0.70155 1.09162,-1.40343 1.63703,-2.10475 0.99097,-1.67 1.98251,-3.34114 2.97337,-5.0113 0.21182,-0.64605 0.42345,-1.29207 0.63477,-1.93771 -0.37818,-0.33419 -0.757,-0.66844 -1.1359,-1.00226 z"
         inkscape:path-effect="#path-effect17916"
         inkscape:connector-curvature="0"
         id="path17914"
         d="m 229.28941,194.5244 c -0.37308,-0.37865 -0.74057,-0.80182 -1.2638,-0.94105 -0.52323,-0.13923 -1.20257,0.006 -1.77619,0.1225 -0.57363,0.11695 -1.04113,0.206 -1.64832,0.26729 -0.60718,0.0613 -1.35282,0.0947 -1.99327,0.0835 -0.64045,-0.0111 -1.17479,-0.0668 -1.68713,0.0612 -0.51233,0.12802 -1.00212,0.4397 -1.40875,0.86299 -0.40663,0.42328 -0.72938,0.95749 -1.15267,1.24162 -0.42329,0.28413 -0.94638,0.31752 -1.27502,0.5402 -0.32865,0.22269 -0.46221,0.63451 -0.76867,2.44539 -0.30646,1.81088 -0.78495,5.01565 -0.96874,6.72517 -0.18379,1.70952 -0.0724,1.92109 0.51264,1.94334 0.58507,0.0223 1.64252,-0.1447 2.92855,-0.46204 1.28603,-0.31734 2.80098,-0.7852 3.90339,-1.2752 1.10241,-0.49 1.79299,-1.00237 2.4109,-1.60919 0.61791,-0.60681 1.16382,-1.30869 1.93199,-2.49436 0.76817,-1.18567 1.75972,-2.8568 2.36101,-4.01491 0.6013,-1.15811 0.81292,-1.80413 0.72945,-2.29388 -0.0835,-0.48975 -0.46229,-0.824 -0.83537,-1.20265 z"
         style="fill:#824734;stroke:none;stroke-width:0.26458332px;stroke-linecap:butt;stroke-linejoin:miter;stroke-opacity:1;fill-opacity:1" />
      <path
         inkscape:original-d="m 203.9654,194.33221 c 0.80346,0.0785 1.60666,0.15723 2.4096,0.23624 1.18109,0.31462 2.36261,0.6297 3.54352,0.94494 0.91357,0.31467 1.82715,0.6297 2.74033,0.94494 0.7246,0.047 1.44917,0.0942 2.17337,0.14174 0.29939,-2.6e-4 0.59872,-2.6e-4 0.89769,0 -0.0469,0.94384 -0.0942,1.88962 -0.14174,2.83482 -0.33057,1.43332 -0.6612,2.86606 -0.99219,4.29948 -0.0785,1.21267 -0.15723,2.42508 -0.23624,3.63802 -0.89763,0.0785 -1.79512,0.15723 -2.69308,0.23624 -2.14228,-0.18931 -4.28346,-0.37824 -6.42559,-0.56697 -2.58286,-0.28377 -5.16541,-0.56722 -7.74851,-0.85044 -0.0627,-0.37828 -0.12573,-0.75622 -0.18899,-1.13393 0.55117,-1.07059 1.10269,-2.14213 1.65365,-3.2128 0.91343,-1.59044 1.82714,-3.18156 2.74032,-4.77195 0.55137,-0.91353 1.1027,-1.82715 1.65365,-2.74033 0.20493,-2.6e-4 0.40974,-2.6e-4 0.61421,0 z"
         inkscape:path-effect="#path-effect17920"
         inkscape:connector-curvature="0"
         id="path17918"
         d="m 204.26488,194.37159 c 0.50395,0.0394 1.30715,0.11814 2.29914,0.31497 0.99199,0.19683 2.17351,0.5119 3.22073,0.82686 1.04723,0.31496 1.96081,0.62998 2.77975,0.81107 0.81893,0.18109 1.5435,0.22835 2.0553,0.25196 0.51181,0.0236 0.81114,0.0236 0.93703,0.49553 0.12589,0.47192 0.0786,1.4177 -0.11041,2.60694 -0.18901,1.18925 -0.51964,2.62199 -0.72441,3.94505 -0.20478,1.32305 -0.2835,2.53546 -0.77169,3.18131 -0.48819,0.64585 -1.38568,0.72458 -2.90582,0.66945 -1.52014,-0.0551 -3.66132,-0.24406 -6.02382,-0.48031 -2.3625,-0.23625 -4.94505,-0.51969 -6.2681,-0.85056 -1.32306,-0.33086 -1.38605,-0.70881 -1.142,-1.43301 0.24406,-0.7242 0.79558,-1.79574 1.52779,-3.12629 0.7322,-1.33056 1.64591,-2.92168 2.37819,-4.17364 0.73228,-1.25195 1.2836,-2.16558 1.66158,-2.62214 0.37798,-0.45657 0.58279,-0.45657 1.08674,-0.41719 z"
         style="fill:#824734;stroke:none;stroke-width:0.26458332px;stroke-linecap:butt;stroke-linejoin:miter;stroke-opacity:1;fill-opacity:1" />
      <path
         inkscape:original-d="m 225.60889,190.79377 c -0.0332,-0.0894 -0.0666,-0.17845 -0.10023,-0.26727 -1.31167,-1.32332 -2.62789,-2.65069 -3.94222,-3.97563 -0.65678,-1.06935 -1.31381,-2.13843 -1.97112,-3.20724 -0.44515,-0.12275 -0.89063,-0.24526 -1.33635,-0.3675 -3.1414,-1.41513 -6.28056,-2.82886 -9.42124,-4.2429 -0.5343,-0.10049 -1.06882,-0.20071 -1.60362,-0.30068 -1.99565,0.31519 -3.99001,0.63039 -5.98541,0.94598 0.20503,0.0627 0.40973,0.12573 0.61421,0.18899 2.09317,-0.0475 4.1895,-0.0948 6.28385,-0.14174 0.11837,0.008 0.2365,0.0155 0.35435,0.0236 0.0474,0.24334 0.0948,0.48796 0.14174,0.73233 0.38644,0.11796 0.77197,0.23597 1.15756,0.35436 0.57485,0.0942 1.14994,0.18872 1.72451,0.28348 1.59032,0.80263 3.18157,1.60613 4.77195,2.4096 0.44908,0.91312 0.89796,1.82662 1.34654,2.74032 0.67756,1.29919 1.35468,2.59833 2.03163,3.89788 0.21289,0.40137 0.42548,0.80294 0.63783,1.2048 0.70126,-0.0948 1.40193,-0.18925 2.10249,-0.28348 0.51977,0.13355 1.0397,0.26747 1.55915,0.4016 -0.32247,-0.37023 -0.64544,-0.74047 -0.96856,-1.11031 0.5357,0.14147 1.0712,0.28322 1.6064,0.42523 0.33233,0.0959 0.66462,0.19211 0.99654,0.28856 z"
         inkscape:path-effect="#path-effect17924"
         inkscape:connector-curvature="0"
         id="path17922"
         d="m 225.59215,190.74912 c -0.0168,-0.0446 -0.0501,-0.13369 -0.72278,-0.83968 -0.67265,-0.706 -1.98886,-2.03337 -2.97444,-3.23055 -0.98558,-1.19718 -1.64262,-2.26626 -2.19373,-2.86198 -0.55112,-0.59572 -0.9966,-0.71823 -2.79018,-1.48691 -1.79359,-0.76868 -4.93275,-2.18241 -6.7702,-2.93969 -1.83745,-0.75727 -2.37197,-0.85749 -3.63715,-0.74993 -1.26518,0.10757 -3.25954,0.42278 -4.15479,0.61199 -0.89526,0.18921 -0.69055,0.2522 0.45833,0.26007 1.14888,0.008 3.24521,-0.0394 4.35157,-0.0591 1.10636,-0.0197 1.22446,-0.0118 1.30695,0.11381 0.0825,0.12563 0.12984,0.37026 0.34665,0.55154 0.21681,0.18129 0.60234,0.29931 1.08259,0.40559 0.48024,0.10628 1.05533,0.20081 2.13772,0.64952 1.08239,0.4487 2.67364,1.2522 3.69329,2.11041 1.01966,0.85821 1.46853,1.77172 2.0316,2.87817 0.56307,1.10645 1.2402,2.40558 1.68512,3.25604 0.44492,0.85047 0.65751,1.25203 1.11449,1.4056 0.45697,0.15357 1.15764,0.0591 1.76775,0.0788 0.61011,0.0197 1.13004,0.15362 1.22843,0.0355 0.0984,-0.11809 -0.22458,-0.48832 -0.11819,-0.60248 0.10639,-0.11415 0.64189,0.0276 1.07565,0.14655 0.43376,0.11895 0.76605,0.21517 0.93205,0.26324 0.16601,0.0481 0.16601,0.0481 0.14927,0.003 z"
         style="fill:#c49075;stroke:none;stroke-width:0.26458332px;stroke-linecap:butt;stroke-linejoin:miter;stroke-opacity:1;fill-opacity:1" />
      <path
         transform="matrix(1.2496465,0,0,1.5572184,-50.777997,-101.07971)"
         inkscape:original-d="m 203.45893,181.43934 c 0.12276,-0.0114 0.24526,-0.0225 0.36749,-0.0334 0.81131,-0.0114 1.62616,-0.0226 2.43884,-0.0334 0.49009,0.36711 0.98025,0.73473 1.46998,1.10249 -0.62331,0.23357 -1.247,0.46745 -1.87089,0.70158 -0.86881,-0.26767 -1.73699,-0.53481 -2.60588,-0.80181 0.0671,-0.31214 0.1339,-0.62389 0.20046,-0.93544 z"
         inkscape:path-effect="#path-effect17928"
         inkscape:connector-curvature="0"
         id="path17926"
         d="m 203.52032,181.43376 c 0.0614,-0.006 0.18389,-0.0167 0.65065,-0.0278 0.46676,-0.0111 1.28161,-0.0223 1.93289,0.15587 0.65127,0.17813 1.14143,0.54575 1.07478,0.84635 -0.0667,0.30059 -0.69034,0.53447 -1.43677,0.51778 -0.74643,-0.0167 -1.61461,-0.28382 -2.01555,-0.57357 -0.40095,-0.28975 -0.33414,-0.6015 -0.30077,-0.75726 0.0334,-0.15575 0.0334,-0.15577 0.0948,-0.16135 z"
         style="fill:#c49075;fill-opacity:1;stroke:none;stroke-width:0.26458332px;stroke-linecap:butt;stroke-linejoin:miter;stroke-opacity:1" />
      <path
         transform="matrix(1.6258498,0,0,1.282801,-135.52445,-54.211806)"
         inkscape:original-d="m 214.48379,190.22582 c -0.0666,0.022 -0.13337,0.0443 -0.20045,0.0668 -0.0221,0.52562 -0.0443,1.04654 -0.0668,1.57021 0.64651,-0.0783 1.29207,-0.15618 1.93771,-0.23386 0.18949,-0.34534 0.37889,-0.69072 0.56795,-1.03567 -0.16663,-0.24504 -0.33383,-0.49026 -0.50113,-0.735 -0.57869,0.12221 -1.15791,0.24474 -1.73726,0.3675 z"
         inkscape:path-effect="#path-effect17932"
         inkscape:connector-curvature="0"
         id="path17930"
         d="m 214.45052,190.23691 c -0.0333,0.0111 -0.10006,0.0333 -0.1448,0.30733 -0.0447,0.27399 -0.0669,0.79491 0.24523,1.01774 0.31213,0.22282 0.95769,0.14491 1.3752,-0.0667 0.41751,-0.21166 0.60691,-0.55704 0.61801,-0.8519 0.0111,-0.29487 -0.15609,-0.5401 -0.52891,-0.60137 -0.37283,-0.0613 -0.95205,0.0613 -1.24174,0.12255 -0.2897,0.0613 -0.28972,0.0613 -0.32299,0.0724 z"
         style="fill:#c49075;fill-opacity:1;stroke:none;stroke-width:0.26458332px;stroke-linecap:butt;stroke-linejoin:miter;stroke-opacity:1" />
      <path
         inkscape:original-d="m 211.47768,183.63076 c 0.59872,0.2281 1.19719,0.45646 1.79538,0.68509 0.0869,-0.31518 0.17351,-0.63023 0.25986,-0.94494 -0.3144,-0.2756 -0.62969,-0.55149 -0.94494,-0.82683 -0.60611,-0.23651 -1.21241,-0.47273 -1.81901,-0.7087 -0.047,0.16513 -0.0942,0.33046 -0.14174,0.49609 0.28429,0.43366 0.56723,0.86593 0.85045,1.29929 z"
         inkscape:path-effect="#path-effect17936"
         inkscape:connector-curvature="0"
         id="path17934"
         d="m 211.63522,183.52839 c 0.44106,0.33079 1.03953,0.55915 1.38203,0.51569 0.3425,-0.0435 0.42914,-0.35851 0.31508,-0.6535 -0.11406,-0.29499 -0.42935,-0.57087 -0.88997,-0.82678 -0.46061,-0.25591 -1.06691,-0.49213 -1.39374,-0.52773 -0.32682,-0.0356 -0.37405,0.12971 -0.25573,0.42949 0.11832,0.29977 0.40126,0.73204 0.84233,1.06283 z"
         style="fill:#c49075;stroke:none;stroke-width:0.26458332px;stroke-linecap:butt;stroke-linejoin:miter;stroke-opacity:1;fill-opacity:1" />
      <path
         style="fill:#c49075;fill-opacity:1;stroke:none;stroke-width:0.26458332px;stroke-linecap:butt;stroke-linejoin:miter;stroke-opacity:1"
         d="m 200.47825,194.79954 c -2.05927,0.52342 -6.30209,1.28007 -8.43942,1.53231 -2.13733,0.25223 -2.16883,2.6e-4 -2.49142,-0.68425 -0.32258,-0.68451 -0.93735,-1.8037 -1.28383,-2.42577 -0.34647,-0.62208 -0.42522,-0.74807 1.119,-2.78673 1.54421,-2.03867 4.71414,-5.99357 6.26564,-7.89167 1.5515,-1.89811 1.48537,-1.74028 1.46798,-1.37775 -0.0174,0.36254 0.0141,0.92931 0.085,1.55944 0.0709,0.63013 0.18108,1.32278 0.14962,1.98428 -0.0315,0.66151 -0.20465,1.29127 -0.14953,2.11054 0.0551,0.81927 0.33847,1.82671 0.72437,2.6694 0.3859,0.84269 0.87403,1.51978 1.36086,2.02187 0.48682,0.50209 0.9721,0.82892 1.28252,1.0337 0.31043,0.20478 0.44601,0.2875 0.66462,0.41159 0.21861,0.12408 0.52024,0.28952 0.71007,0.41965 0.18982,0.13013 0.2679,0.22497 0.36888,0.41739 0.10099,0.19242 0.22492,0.48258 -1.83435,1.006 z"
         id="path17950"
         inkscape:connector-curvature="0"
         inkscape:path-effect="#path-effect17952"
         inkscape:original-d="m 202.6615,194.56637 c -4.24256,0.75638 -8.48538,1.51302 -12.72847,2.26994 -0.0312,-0.25227 -0.0627,-0.50424 -0.0945,-0.75596 -0.61339,-1.11743 -1.22816,-2.23662 -1.84263,-3.35453 -0.0785,-0.12625 -0.15723,-0.25225 -0.23624,-0.37798 3.16716,-3.95139 6.33708,-7.90629 9.50608,-11.86008 -0.0659,0.15761 -0.13203,0.31544 -0.19842,0.47355 0.0318,0.56689 0.0633,1.13366 0.0945,1.70089 0.11055,0.693 0.22075,1.38565 0.33073,2.07887 -0.17303,0.62989 -0.34622,1.25965 -0.51972,1.88988 0.28389,1.00817 0.56723,2.01561 0.85045,3.02381 0.48856,0.67706 0.9767,1.35415 1.46466,2.03162 0.4856,0.32661 0.97087,0.65345 1.45591,0.98057 0.13582,0.0824 0.27138,0.16515 0.40669,0.24814 0.3019,0.16517 0.60353,0.33061 0.90491,0.49633 0.0784,0.0946 0.15646,0.18946 0.23429,0.28459 0.12417,0.28981 0.2481,0.57997 0.37176,0.87036 z"
         sodipodi:nodetypes="ccccccccccccccccc"
         transform="matrix(1.0792504,0.02888305,-0.02879626,1.0825032,-9.3590529,-21.905629)" />
      <path
         transform="rotate(1.5283874,211.84864,211.003)"
         sodipodi:nodetypes="ccccccccccccccccc"
         inkscape:original-d="m 202.6615,194.56637 c -4.24256,0.75638 -8.48538,1.51302 -12.72847,2.26994 -0.0312,-0.25227 -0.0627,-0.50424 -0.0945,-0.75596 -0.61339,-1.11743 -1.22816,-2.23662 -1.84263,-3.35453 -0.0785,-0.12625 -0.15723,-0.25225 -0.23624,-0.37798 3.16716,-3.95139 6.33708,-7.90629 9.50608,-11.86008 -0.0659,0.15761 -0.13203,0.31544 -0.19842,0.47355 0.0318,0.56689 0.0633,1.13366 0.0945,1.70089 0.11055,0.693 0.22075,1.38565 0.33073,2.07887 -0.17303,0.62989 -0.34622,1.25965 -0.51972,1.88988 0.28389,1.00817 0.56723,2.01561 0.85045,3.02381 0.48856,0.67706 0.9767,1.35415 1.46466,2.03162 0.4856,0.32661 0.97087,0.65345 1.45591,0.98057 0.13582,0.0824 0.27138,0.16515 0.40669,0.24814 0.3019,0.16517 0.60353,0.33061 0.90491,0.49633 0.0784,0.0946 0.15646,0.18946 0.23429,0.28459 0.12417,0.28981 0.2481,0.57997 0.37176,0.87036 z"
         inkscape:path-effect="#path-effect17948"
         inkscape:connector-curvature="0"
         id="path17946"
         d="m 200.47825,194.79954 c -2.05927,0.52342 -6.30209,1.28007 -8.43942,1.53231 -2.13733,0.25223 -2.16883,2.6e-4 -2.49142,-0.68425 -0.32258,-0.68451 -0.93735,-1.8037 -1.28383,-2.42577 -0.34647,-0.62208 -0.42522,-0.74807 1.119,-2.78673 1.54421,-2.03867 4.71414,-5.99357 6.26564,-7.89167 1.5515,-1.89811 1.48537,-1.74028 1.46798,-1.37775 -0.0174,0.36254 0.0141,0.92931 0.085,1.55944 0.0709,0.63013 0.18108,1.32278 0.14962,1.98428 -0.0315,0.66151 -0.20465,1.29127 -0.14953,2.11054 0.0551,0.81927 0.33847,1.82671 0.72437,2.6694 0.3859,0.84269 0.87403,1.51978 1.36086,2.02187 0.48682,0.50209 0.9721,0.82892 1.28252,1.0337 0.31043,0.20478 0.44601,0.2875 0.66462,0.41159 0.21861,0.12408 0.52024,0.28952 0.71007,0.41965 0.18982,0.13013 0.2679,0.22497 0.36888,0.41739 0.10099,0.19242 0.22492,0.48258 -1.83435,1.006 z"
         style="fill:#9b614b;fill-opacity:1;stroke:none;stroke-width:0.26458332px;stroke-linecap:butt;stroke-linejoin:miter;stroke-opacity:1" />
      <path
         inkscape:original-d="m 189.42728,191.6958 c 0.0671,0.31155 0.13389,0.62337 0.20045,0.93545 0.3457,0.70176 0.69071,1.4029 1.03567,2.10475 0.11164,0.17794 0.22299,0.35609 0.33408,0.53453 0.2008,-2.6e-4 0.40117,-2.6e-4 0.60136,0 0.81214,-0.0559 1.62615,-0.11162 2.43884,-0.16704 1.25822,-0.12272 2.51705,-0.24526 3.77518,-0.36749 0.50128,-0.21181 1.00252,-0.42345 1.50339,-0.63477 -1.04588,0.0443 -2.09335,0.0888 -3.14042,0.13363 -0.91314,-0.14507 -1.82608,-0.2898 -2.73951,-0.43431 -0.57896,-0.55721 -1.1579,-1.11389 -1.73725,-1.67043 -0.56769,-0.43458 -1.13563,-0.86889 -1.70385,-1.30294 -0.18906,0.28929 -0.37836,0.57882 -0.56794,0.86862 z"
         inkscape:path-effect="#path-effect17956"
         inkscape:connector-curvature="0"
         id="path17954"
         d="m 189.55542,191.70669 c -0.0614,0.30073 0.005,0.61254 0.21157,1.11951 0.20613,0.50696 0.55113,1.20811 0.77944,1.64802 0.2283,0.43991 0.33965,0.61807 0.49575,0.70719 0.1561,0.0891 0.35647,0.0891 0.86264,0.0613 0.50618,-0.0278 1.32019,-0.0836 2.35564,-0.17264 1.03546,-0.0891 2.29429,-0.21161 3.17401,-0.37868 0.87973,-0.16708 1.38097,-0.37871 1.10844,-0.46219 -0.27253,-0.0835 -1.32,-0.0389 -2.30013,-0.089 -0.98014,-0.0501 -1.89308,-0.19485 -2.63938,-0.54572 -0.7463,-0.35087 -1.32524,-0.90755 -1.89874,-1.4031 -0.5735,-0.49555 -1.14145,-0.92985 -1.52,-1.0024 -0.37856,-0.0725 -0.56787,0.21698 -0.62924,0.51771 z"
         style="fill:#a86c55;stroke:none;stroke-width:0.26458332px;stroke-linecap:butt;stroke-linejoin:miter;stroke-opacity:1;fill-opacity:1" />
      <path
         sodipodi:nodetypes="cccccccccccccccccccc"
         inkscape:original-d="m 195.94197,204.99246 c -0.0109,0.22246 -0.022,0.44519 -0.0334,0.66818 -0.26734,0.13353 -0.53427,0.267 -0.80181,0.4009 -1.6387,-0.29015 -3.27378,-0.57935 -4.91107,-0.86862 -0.71255,-0.14506 -1.42518,-0.28981 -2.13816,-0.43432 -0.64582,-0.4904 -1.29154,-0.98025 -1.9377,-1.46998 -0.59,-0.92463 -1.18018,-1.84888 -1.77067,-2.77292 -0.46742,-1.33652 -0.93517,-2.67296 -1.40316,-4.00904 0.0671,-0.73518 0.1339,-1.47025 0.20045,-2.20498 0.43441,0.71218 0.86889,1.42517 1.30294,2.13816 0.80216,1.2694 1.60388,2.53879 2.40543,3.80859 2.47264,0.38952 4.9488,0.77991 7.41673,1.1693 -1.91026,-1.526 -3.82392,-3.05424 -5.74097,-4.58472 1.50763,-0.12589 3.00868,-0.25098 4.51474,-0.37626 1.70679,-0.10049 3.41002,-0.20052 5.11478,-0.30039 1.31003,-0.60739 2.61966,-1.21445 3.92908,-1.82127 -1.40289,1.87061 -2.80607,3.74151 -4.2095,5.61266 -0.48999,1.05825 -0.97972,2.11562 -1.46998,3.17382 -0.16683,0.5233 -0.33382,1.04655 -0.50113,1.57021 0.0114,0.10003 0.0225,0.20019 0.0334,0.30068 z"
         inkscape:path-effect="#path-effect17979"
         inkscape:connector-curvature="0"
         id="path17977"
         d="m 195.93083,205.05345 c 2e-5,0.16146 -0.0111,0.38419 -0.15033,0.56251 -0.13921,0.17832 -0.40615,0.31179 -1.35932,0.23376 -0.95317,-0.078 -2.58825,-0.36722 -3.76318,-0.58439 -1.17492,-0.21716 -1.88755,-0.36192 -2.56703,-0.67937 -0.67949,-0.31746 -1.3252,-0.80732 -1.94332,-1.51455 -0.61813,-0.70723 -1.20831,-1.63147 -1.73727,-2.76179 -0.52896,-1.13033 -0.99671,-2.46677 -1.19713,-3.50247 -0.20041,-1.03569 -0.13359,-1.77076 0.11685,-1.78193 0.25045,-0.0112 0.68493,0.70182 1.30303,1.69302 0.61811,0.9912 1.41983,2.26058 3.05706,3.0903 1.63722,0.82971 4.11338,1.2201 4.39213,0.65179 0.27874,-0.56831 -1.63492,-2.09655 -1.8395,-2.92476 -0.20459,-0.82821 1.29646,-0.95331 2.90288,-1.06618 1.60642,-0.11288 3.30965,-0.21291 4.81707,-0.56661 1.50741,-0.35369 2.81704,-0.96075 2.77026,-0.32893 -0.0468,0.63182 -1.44996,2.50272 -2.39671,3.96741 -0.94675,1.46468 -1.43648,2.52205 -1.76505,3.31281 -0.32856,0.79075 -0.49556,1.314 -0.57357,1.62588 -0.078,0.31189 -0.0669,0.41205 -0.0669,0.5735 z"
         style="fill:#643628;fill-opacity:1;stroke:none;stroke-width:0.26458332px;stroke-linecap:butt;stroke-linejoin:miter;stroke-opacity:1" />
      <path
         inkscape:original-d="m 201.18713,199.88093 c -0.512,0.99086 -1.02426,1.98199 -1.5368,2.97338 -0.25595,0.67926 -0.512,1.35835 -0.7684,2.03793 0.63533,0.31169 1.2698,0.62336 1.9043,0.93544 1.5368,0.16675 3.07387,0.33382 4.6104,0.50113 2.37192,0.14449 4.7443,0.28928 7.11605,0.43431 0.35659,-0.38999 0.71298,-0.7798 1.06908,-1.1693 0.15606,-0.57894 0.31208,-1.15843 0.46772,-1.73725 0.0448,-1.04651 0.0894,-2.09388 0.13364,-3.14042 -1.9258,-0.2118 -3.85288,-0.42344 -5.77971,-0.63476 -1.97109,0.93529 -3.94196,1.87062 -5.91334,2.80633 -0.4007,-0.26758 -0.80154,-0.53481 -1.20271,-0.80181 0.86902,-0.42351 1.73752,-0.84662 2.60588,-1.26953 1.11348,-0.23404 2.22751,-0.46799 3.34087,-0.70159 -0.76793,-0.22293 -1.53654,-0.44571 -2.3052,-0.66817 -0.91311,0.11112 -1.82608,0.22246 -2.73952,0.33409 -0.33392,0.0332 -0.6679,0.0666 -1.00226,0.10022 z"
         inkscape:path-effect="#path-effect17987"
         inkscape:connector-curvature="0"
         id="path17985"
         d="m 201.09827,200.35962 c -0.42324,0.51212 -0.93551,1.50324 -1.31977,2.33857 -0.38426,0.83533 -0.64031,1.51442 -0.45086,2.01024 0.18946,0.49582 0.82393,0.80749 1.90965,1.04689 1.08571,0.2394 2.62278,0.40647 4.57701,0.56236 1.95423,0.15589 4.32661,0.30069 5.69078,0.17806 1.36418,-0.12262 1.72057,-0.51243 1.97657,-0.99667 0.25599,-0.48424 0.41201,-1.06373 0.51219,-1.87638 0.10017,-0.81264 0.14475,-1.86001 -0.7959,-2.48903 -0.94065,-0.62902 -2.86773,-0.84066 -4.81665,-0.47876 -1.94891,0.3619 -3.91979,1.29722 -5.10596,1.63139 -1.18617,0.33416 -1.58701,0.0669 -1.35295,-0.27842 0.23406,-0.34536 1.10255,-0.76847 2.09347,-1.0969 0.99091,-0.32843 2.10494,-0.56238 2.27759,-0.79059 0.17265,-0.2282 -0.59596,-0.45099 -1.43679,-0.5067 -0.84082,-0.0557 -1.75379,0.0556 -2.37748,0.12802 -0.62368,0.0724 -0.95766,0.10579 -1.3809,0.61792 z"
         style="fill:#643628;stroke:none;stroke-width:0.26458332px;stroke-linecap:butt;stroke-linejoin:miter;stroke-opacity:1;fill-opacity:1" />
      <path
         inkscape:original-d="m 221.37593,199.55301 c -1.48802,0.2281 -2.9763,0.45646 -4.46485,0.68508 -0.22026,1.28354 -0.4407,2.56683 -0.66145,3.85063 -0.14151,0.9134 -0.28322,1.82662 -0.42523,2.74033 1.44965,-0.17356 2.89808,-0.34674 4.34673,-0.51971 1.45675,-0.61436 2.91383,-1.22869 4.37035,-1.84264 0.89776,-1.33863 1.79565,-2.6776 2.69308,-4.016 0.51986,-0.882 1.0397,-1.76415 1.55915,-2.64583 -0.34609,0.18079 -0.69269,0.36196 -1.03943,0.54334 -0.78791,0.41747 -1.57464,0.83443 -2.36236,1.25205 -1.33893,-0.016 -2.67706,-0.0318 -4.01599,-0.0472 z"
         inkscape:path-effect="#path-effect17991"
         inkscape:connector-curvature="0"
         id="path17989"
         d="m 220.63194,199.66717 c -0.744,0.11415 -2.23228,0.34251 -3.08681,1.09847 -0.85453,0.75595 -1.07497,2.03924 -1.2561,3.13784 -0.18113,1.09861 -0.32284,2.01183 0.3311,2.38203 0.65395,0.37021 2.10238,0.19703 3.55509,-0.19668 1.45272,-0.39371 2.90979,-1.00805 4.08688,-1.98443 1.17708,-0.97637 2.07497,-2.31534 2.78361,-3.42554 0.70863,-1.11021 1.22847,-1.99236 1.31521,-2.34273 0.0867,-0.35037 -0.25985,-0.1692 -0.82717,0.13022 -0.56733,0.29943 -1.35406,0.71639 -2.41741,0.91728 -1.06335,0.20089 -2.40148,0.18517 -3.07095,0.1773 -0.66946,-0.008 -0.66946,-0.008 -1.41345,0.10624 z"
         style="fill:#643628;stroke:none;stroke-width:0.26458332px;stroke-linecap:butt;stroke-linejoin:miter;stroke-opacity:1;fill-opacity:1" />
    </g>
  </g>
</svg>
